# xmcd
#
# Track frame offsets: 
#        150
#        6692
#        25585
#        47890
#        64525
#        82430
#        84735
#        103355
#        120062
#        136677
#        139120
#        162527
#        178332
#        200682
#
# Disc length: 2972 seconds
#
# Revision: 1
# Processed by: cddbd v1.5.2PL0 Copyright (c) Steve Scherf et al.
# Submitted via: ExactAudioCopy v0.95b4
#
DISCID=ca0b9a0e
DTITLE=Virgínia Rodrigues - Nós
DYEAR=2000
DGENRE=Capo Verde
TTITLE0=Canto Pra Exú
TTITLE1=Uma História De Ifá
TTITLE2=Salvador Não Inerte
TTITLE3=Afrekêtê
TTITLE4=Jeito Faceiro
TTITLE5=Llê É  Ímpar
TTITLE6=Depois Que O Llê Passar
TTITLE7=Ojú Obá
TTITLE8=Raça Negra
TTITLE9=Deusa Do Ébano
TTITLE10=Deus Do Fogo E Da Justiça
TTITLE11=Male Debale
TTITLE12=Mimar Você
TTITLE13=Reino  De Daomé
EXTD=
EXTT0=
EXTT1=
EXTT2=
EXTT3=
EXTT4=
EXTT5=
EXTT6=
EXTT7=
EXTT8=
EXTT9=
EXTT10=
EXTT11=
EXTT12=
EXTT13=
PLAYORDER=
